<svg width="82" height="75" viewBox="0 0 82 75" fill="none" xmlns="http://www.w3.org/2000/svg">
<path d="M71.6997 29.4965L49.9725 10.2664C49.5721 9.91118 48.9133 9.91118 48.5129 10.2664L44.1209 14.1514C43.7205 14.5067 43.7205 15.0912 44.1209 15.4464L45.5677 16.7185L14.2558 44.4405C9.24385 48.8756 8.43005 56.1298 13.0416 60.8857C15.7026 63.6362 19.4357 65.0114 23.1689 64.9999C26.5791 64.9999 29.9893 63.8539 32.5857 61.5504L64.4013 33.3929L65.8481 34.665C66.2485 35.0203 66.9073 35.0203 67.3077 34.665L71.6997 30.78C72.1001 30.4362 72.1001 29.8518 71.6997 29.4965ZM51.0705 37.5071H30.7901L49.908 20.5805L60.0481 29.5538L51.0705 37.5071Z" fill="#22C55E"/>
</svg>
