<svg width="17" height="24" viewBox="0 0 17 24" fill="none" xmlns="http://www.w3.org/2000/svg">
<path d="M9.91119 1.03548C9.52773 -0.313577 7.52347 -0.376389 7.08881 1.03548C4.83003 8.43048 0 10.44 0 15.652C0 20.2664 3.80182 24 8.5 24C13.1982 24 17 20.2664 17 15.652C17 10.4138 12.1806 8.46423 9.91119 1.03548ZM8.5 21C5.51776 21 3.09091 18.6445 3.09091 15.75C3.09091 15.3356 3.4367 15 3.86364 15C4.29057 15 4.63636 15.3356 4.63636 15.75C4.63636 17.8177 6.36969 19.5 8.5 19.5C8.92693 19.5 9.27273 19.8356 9.27273 20.25C9.27273 20.6644 8.92693 21 8.5 21Z" fill="#4ADE80"/>
</svg>
