<svg width="54" height="90" viewBox="0 0 54 90" fill="none" xmlns="http://www.w3.org/2000/svg">
<path d="M35.5 62.5C35.5 67.3325 31.6944 71.25 27 71.25C22.3056 71.25 18.5 67.3325 18.5 62.5C18.5 59.2618 20.2101 56.4367 22.75 54.9235V40.625C22.75 38.2088 24.6528 36.25 27 36.25C29.3472 36.25 31.25 38.2088 31.25 40.625V54.9235C33.7899 56.4367 35.5 59.2618 35.5 62.5ZM39.75 50.9263C42.3946 54.0111 44 58.0622 44 62.5C44 72.1655 36.3894 80 27 80C26.9603 80 26.9191 79.9999 26.8793 79.9996C17.5423 79.9329 9.95254 72.0205 10.0002 62.4088C10.022 58.0067 11.6236 53.9899 14.25 50.9263V23.125C14.25 15.8763 19.9584 10 27 10C34.0416 10 39.75 15.8763 39.75 23.125V50.9263ZM37.625 62.5C37.625 57.8052 35.0524 55.3646 33.375 53.4079V23.125C33.375 19.5065 30.5151 16.5625 27 16.5625C23.4848 16.5625 20.625 19.5065 20.625 23.125V53.4079C18.934 55.3805 16.3982 57.7966 16.3751 62.4423C16.3453 68.441 21.0983 73.3957 26.9235 73.4372L27 73.4375C32.8586 73.4375 37.625 68.5309 37.625 62.5Z" fill="#3B82F6"/>
</svg>
