<svg width="14" height="16" viewBox="0 0 14 16" fill="none" xmlns="http://www.w3.org/2000/svg">
<g clip-path="url(#clip0_165_637)">
<path d="M3.55806 2.0625C3.55806 2.0625 3.82071 1.90923 4.34601 1.60268C4.87131 1.29614 5.75598 1.14286 7.00003 1.14286C8.24407 1.14286 9.3914 1.44941 10.442 2.0625C11.4926 2.6756 12.3244 3.50745 12.9375 4.55804C13.5506 5.60864 13.8572 6.75596 13.8572 8.00001C13.8572 9.49405 13.4212 10.8378 12.5491 12.0313C11.6771 13.2247 10.5506 14.0506 9.16967 14.5089C9.00896 14.5387 8.88991 14.5179 8.81253 14.4464C8.73515 14.375 8.69646 14.2857 8.69646 14.1786C8.69646 14.1607 8.69794 13.933 8.70092 13.4955C8.7039 13.058 8.70538 12.6577 8.70538 12.2946C8.70538 11.7173 8.55062 11.2946 8.2411 11.0268C8.58038 10.9911 8.88544 10.9375 9.15628 10.8661C9.42711 10.7946 9.70687 10.6786 9.99556 10.5179C10.2843 10.3571 10.5253 10.1592 10.7188 9.92411C10.9122 9.68899 11.07 9.37649 11.192 8.98661C11.314 8.59673 11.375 8.14881 11.375 7.64286C11.375 6.93453 11.1399 6.32143 10.6697 5.80358C10.8899 5.26191 10.8661 4.65477 10.5982 3.98215C10.4316 3.92858 10.1905 3.96131 9.87503 4.08036C9.55955 4.19941 9.28574 4.33036 9.0536 4.47322L8.71431 4.6875C8.16074 4.53274 7.58931 4.45536 7.00003 4.45536C6.41074 4.45536 5.83931 4.53274 5.28574 4.6875C5.1905 4.62203 5.06401 4.54167 4.90628 4.44643C4.74854 4.3512 4.50003 4.23661 4.16074 4.10268C3.82146 3.96875 3.56848 3.92858 3.40181 3.98215C3.13395 4.65477 3.11015 5.26191 3.33038 5.80358C2.86015 6.32143 2.62503 6.93453 2.62503 7.64286C2.62503 8.14881 2.68604 8.59524 2.80806 8.98215C2.93009 9.36905 3.08634 9.68155 3.27681 9.91965C3.46729 10.1577 3.70687 10.3571 3.99556 10.5179C4.28425 10.6786 4.56401 10.7946 4.83485 10.8661C5.10568 10.9375 5.41074 10.9911 5.75003 11.0268C5.51788 11.2411 5.37205 11.5476 5.31253 11.9464C5.18753 12.006 5.0536 12.0506 4.91074 12.0804C4.76788 12.1101 4.59824 12.125 4.40181 12.125C4.20538 12.125 4.01044 12.061 3.81699 11.933C3.62354 11.8051 3.45836 11.6191 3.32145 11.375C3.20836 11.1845 3.06401 11.0298 2.88842 10.9107C2.71282 10.7917 2.5655 10.7202 2.44645 10.6964L2.26788 10.6696C2.14288 10.6696 2.05657 10.683 2.00895 10.7098C1.96134 10.7366 1.94645 10.7708 1.96431 10.8125C1.98217 10.8542 2.00895 10.8958 2.04467 10.9375C2.08038 10.9792 2.11907 11.0149 2.16074 11.0446L2.22324 11.0893C2.35419 11.1488 2.48366 11.2619 2.61163 11.4286C2.73961 11.5952 2.83336 11.747 2.89288 11.8839L2.98217 12.0893C3.05955 12.3155 3.1905 12.4985 3.37503 12.6384C3.55955 12.7783 3.75896 12.8676 3.97324 12.9063C4.18753 12.9449 4.39437 12.9658 4.59378 12.9688C4.79318 12.9717 4.95836 12.9613 5.08931 12.9375L5.29467 12.9018C5.29467 13.128 5.29616 13.3914 5.29913 13.692C5.30211 13.9926 5.3036 14.1548 5.3036 14.1786C5.3036 14.2857 5.26491 14.375 5.18753 14.4464C5.11015 14.5179 4.9911 14.5387 4.83038 14.5089C3.44943 14.0506 2.32294 13.2247 1.45092 12.0313C0.578895 10.8378 0.142883 9.49405 0.142883 8.00001C0.142883 6.75596 0.449431 5.60864 1.06253 4.55804C1.67562 3.50745 2.50747 2.6756 3.55806 2.0625ZM2.7411 10.9911C2.75895 10.9494 2.73812 10.9137 2.6786 10.8839C2.61907 10.8661 2.58038 10.872 2.56253 10.9018C2.54467 10.9435 2.5655 10.9792 2.62503 11.0089C2.6786 11.0446 2.71729 11.0387 2.7411 10.9911ZM3.01788 11.2946C3.05955 11.2649 3.0536 11.2173 3.00003 11.1518C2.9405 11.0982 2.89288 11.0893 2.85717 11.125C2.8155 11.1548 2.82145 11.2024 2.87503 11.2679C2.93455 11.3274 2.98217 11.3363 3.01788 11.2946ZM3.28574 11.6964C3.33931 11.6548 3.33931 11.5982 3.28574 11.5268C3.23812 11.4494 3.18753 11.4316 3.13395 11.4732C3.08038 11.503 3.08038 11.5566 3.13395 11.6339C3.18753 11.7113 3.23812 11.7321 3.28574 11.6964ZM3.66074 12.0714C3.70836 12.0238 3.69646 11.9673 3.62503 11.9018C3.5536 11.8304 3.49407 11.8214 3.44645 11.875C3.39288 11.9226 3.40479 11.9792 3.48217 12.0446C3.5536 12.1161 3.61312 12.125 3.66074 12.0714ZM4.16967 12.2946C4.18753 12.2292 4.14884 12.1816 4.0536 12.1518C3.96431 12.128 3.90776 12.1488 3.88396 12.2143C3.86015 12.2798 3.89884 12.3244 4.00003 12.3482C4.08931 12.3839 4.14586 12.3661 4.16967 12.2946ZM4.73217 12.3393C4.73217 12.2619 4.68157 12.2292 4.58038 12.2411C4.48515 12.2411 4.43753 12.2738 4.43753 12.3393C4.43753 12.4167 4.48812 12.4494 4.58931 12.4375C4.68455 12.4375 4.73217 12.4048 4.73217 12.3393ZM5.25003 12.25C5.23812 12.1845 5.18455 12.1577 5.08931 12.1696C4.99407 12.1875 4.95241 12.2321 4.96431 12.3036C4.97622 12.375 5.02979 12.3988 5.12503 12.375C5.22026 12.3512 5.26193 12.3095 5.25003 12.25Z" fill="white"/>
</g>
<defs>
<clipPath id="clip0_165_637">
<rect width="14" height="16" fill="white" transform="matrix(1 0 0 -1 0 16)"/>
</clipPath>
</defs>
</svg>
