<svg width="82" height="75" viewBox="0 0 82 75" fill="none" xmlns="http://www.w3.org/2000/svg">
<path d="M41.0015 27.1875C34.5953 27.1875 29.3759 31.8174 29.3759 37.5C29.3759 43.1826 34.5953 47.8125 41.0015 47.8125C47.4077 47.8125 52.6271 43.1826 52.6271 37.5C52.6271 31.8174 47.4077 27.1875 41.0015 27.1875ZM70.8405 35.835L59.3723 30.7539L63.4292 19.9688C63.9741 18.5078 62.4119 17.1221 60.7771 17.6162L48.6187 21.2148L42.8785 11.0312C42.1035 9.65625 39.8995 9.65625 39.1245 11.0312L33.3964 21.2041L21.2259 17.6055C19.579 17.1221 18.0168 18.5078 18.5739 19.958L22.6307 30.7432L11.1626 35.835C9.61248 36.5225 9.61248 38.4775 11.1626 39.165L22.6307 44.2461L18.5739 55.042C18.0289 56.5029 19.5911 57.8887 21.2259 57.3945L33.3843 53.7959L39.1124 63.9688C39.8874 65.3438 42.0914 65.3438 42.8664 63.9688L48.5945 53.7959L60.7529 57.3945C62.3998 57.8779 63.962 56.4922 63.4049 55.042L59.3481 44.2568L70.8162 39.1758C72.3905 38.4775 72.3905 36.5225 70.8405 35.835ZM51.961 47.2217C45.9181 52.582 36.0849 52.582 30.042 47.2217C23.9991 41.8613 23.9991 33.1387 30.042 27.7783C36.0849 22.418 45.9181 22.418 51.961 27.7783C58.0039 33.1387 58.0039 41.8613 51.961 47.2217Z" fill="#EAB308"/>
</svg>
