<svg width="75" height="75" viewBox="0 0 75 75" fill="none" xmlns="http://www.w3.org/2000/svg">
<path d="M53.6254 30.5748L52.9269 32.1161C52.6713 32.6874 52.1261 32.9245 51.6405 32.6982C50.6353 32.2239 49.7153 31.5449 48.906 30.6934C48.5142 30.2838 48.4119 29.5616 48.6675 29.0012L49.366 27.4598C48.7782 26.5976 48.3182 25.5951 48.0116 24.5065H46.606C46.0948 24.5065 45.6519 24.043 45.5667 23.3963C45.3963 22.1029 45.3878 20.7448 45.5667 19.3975C45.6519 18.7508 46.0948 18.2766 46.606 18.2766H48.0116C48.3182 17.1879 48.7782 16.1855 49.366 15.3232L48.6675 13.7819C48.4119 13.2214 48.5056 12.4993 48.906 12.0897C49.7153 11.2382 50.6438 10.5591 51.6405 10.0849C52.1261 9.85854 52.6713 10.0957 52.9269 10.6669L53.6254 12.2083C54.5199 12.0035 55.4314 12.0035 56.3259 12.2083L57.0244 10.6669C57.28 10.0957 57.8252 9.85854 58.3107 10.0849C59.316 10.5591 60.236 11.2382 61.0453 12.0897C61.4371 12.4993 61.5394 13.2214 61.2838 13.7819L60.5853 15.3232C61.173 16.1855 61.6331 17.1879 61.9397 18.2766H63.3453C63.8565 18.2766 64.2994 18.74 64.3846 19.3867C64.555 20.6802 64.5635 22.0382 64.3846 23.3856C64.2994 24.0323 63.8565 24.5065 63.3453 24.5065H61.9397C61.6331 25.5951 61.173 26.5976 60.5853 27.4598L61.2838 29.0012C61.5394 29.5616 61.4457 30.2838 61.0453 30.6934C60.236 31.5449 59.3074 32.2239 58.3107 32.6982C57.8252 32.9245 57.28 32.6874 57.0244 32.1161L56.3259 30.5748C55.4399 30.7796 54.5199 30.7796 53.6254 30.5748ZM52.7309 24.2371C56.0107 27.4275 59.7504 22.6957 57.2289 18.546C53.9491 15.3448 50.2094 20.0873 52.7309 24.2371ZM42.9088 40.8252L45.7796 42.636C46.64 43.2611 47.0149 44.5869 46.6741 45.7725C45.9159 48.3809 44.4251 50.7737 43.0451 52.8647C42.4147 53.824 41.3243 54.0612 40.4639 53.436L37.985 51.6252C36.622 53.1019 35.0375 54.2767 33.3082 55.042V58.6636C33.3082 59.9139 32.6011 60.9917 31.63 61.2073C29.5343 61.66 27.3365 61.6816 25.1642 61.2073C24.1846 60.9917 23.4605 59.9247 23.4605 58.6636V55.042C21.7311 54.2659 20.1467 53.1019 18.7837 51.6252L16.3047 53.4252C15.4528 54.0504 14.3539 53.8133 13.7235 52.854C12.3435 50.7629 10.8868 48.3701 10.1286 45.7725C9.78783 44.5976 10.1627 43.2719 11.0231 42.636L13.8598 40.8252C13.5276 38.5725 13.5276 36.2551 13.8598 33.9916L11.0231 32.17C10.1627 31.5449 9.77931 30.2191 10.1286 29.0443C10.8868 26.4359 12.3435 24.043 13.7235 21.952C14.3539 20.9927 15.4443 20.7556 16.3047 21.3808L18.7837 23.1915C20.1467 21.7149 21.7311 20.54 23.4605 19.7748V16.1424C23.4605 14.9029 24.159 13.825 25.1301 13.6095C27.2258 13.1568 29.4321 13.1352 31.6044 13.5987C32.5841 13.8143 33.3082 14.8813 33.3082 16.1424V19.764C35.0375 20.54 36.622 21.7041 37.985 23.1808L40.4639 21.37C41.3158 20.7448 42.4147 20.982 43.0451 21.9412C44.4251 24.0323 45.8733 26.4251 46.6315 29.0335C46.9723 30.2083 46.64 31.5341 45.7796 32.17L42.9088 33.9808C43.241 36.2443 43.241 38.5617 42.9088 40.8252ZM32.8907 43.0994C37.9338 34.8 30.4458 25.3257 23.8864 31.7066C18.8433 40.006 26.3313 49.4803 32.8907 43.0994ZM53.6254 62.7917L52.9269 64.3331C52.6713 64.9043 52.1261 65.1415 51.6405 64.9151C50.6353 64.4408 49.7153 63.7618 48.906 62.9103C48.5142 62.5007 48.4119 61.7786 48.6675 61.2181L49.366 59.6768C48.7782 58.8145 48.3182 57.8121 48.0116 56.7234H46.606C46.0948 56.7234 45.6519 56.26 45.5667 55.6133C45.3963 54.3198 45.3878 52.9618 45.5667 51.6144C45.6519 50.9677 46.0948 50.4935 46.606 50.4935H48.0116C48.3182 49.4048 48.7782 48.4024 49.366 47.5402L48.6675 45.9988C48.4119 45.4384 48.5056 44.7162 48.906 44.3066C49.7153 43.4551 50.6438 42.7761 51.6405 42.3018C52.1261 42.0755 52.6713 42.3126 52.9269 42.8839L53.6254 44.4252C54.5199 44.2204 55.4314 44.2204 56.3259 44.4252L57.0244 42.8839C57.28 42.3126 57.8252 42.0755 58.3107 42.3018C59.316 42.7761 60.236 43.4551 61.0453 44.3066C61.4371 44.7162 61.5394 45.4384 61.2838 45.9988L60.5853 47.5402C61.173 48.4024 61.6331 49.4048 61.9397 50.4935H63.3453C63.8565 50.4935 64.2994 50.957 64.3846 51.6037C64.555 52.8971 64.5635 54.2552 64.3846 55.6025C64.2994 56.2492 63.8565 56.7234 63.3453 56.7234H61.9397C61.6331 57.8121 61.173 58.8145 60.5853 59.6768L61.2838 61.2181C61.5394 61.7786 61.4457 62.5007 61.0453 62.9103C60.236 63.7618 59.3074 64.4408 58.3107 64.9151C57.8252 65.1415 57.28 64.9043 57.0244 64.3331L56.3259 62.7917C55.4399 62.9965 54.5199 62.9965 53.6254 62.7917ZM52.7309 56.4432C56.0107 59.6336 59.7504 54.9019 57.2289 50.7522C53.9491 47.5617 50.2094 52.2935 52.7309 56.4432Z" fill="#6366F1"/>
</svg>
