<svg width="54" height="90" viewBox="0 0 54 90" fill="none" xmlns="http://www.w3.org/2000/svg">
<path d="M29.8224 13.0202C29.0555 9.0854 25.0469 8.9022 24.1776 13.0202C19.6601 34.5889 10 40.45 10 55.6518C10 69.1104 17.6036 80 27 80C36.3964 80 44 69.1104 44 55.6518C44 40.3735 34.3612 34.6873 29.8224 13.0202ZM27 71.25C21.0355 71.25 16.1818 64.3799 16.1818 55.9375C16.1818 54.7289 16.8734 53.75 17.7273 53.75C18.5811 53.75 19.2727 54.7289 19.2727 55.9375C19.2727 61.9682 22.7394 66.875 27 66.875C27.8539 66.875 28.5455 67.8539 28.5455 69.0625C28.5455 70.2711 27.8539 71.25 27 71.25Z" fill="#3B82F6"/>
</svg>
