<svg width="28" height="32" viewBox="0 0 28 32" fill="none" xmlns="http://www.w3.org/2000/svg">
<g clip-path="url(#clip0_165_606)">
<path d="M25.8532 25.4481C26.0786 25.6734 26.1912 25.9403 26.1912 26.2488C26.1912 26.5572 26.0786 26.8241 25.8532 27.0494C25.6278 27.2748 25.3609 27.3875 25.0525 27.3875H16.8321C16.844 27.5892 16.8796 28.1081 16.9389 28.9444C16.9982 29.7807 17.0279 30.4242 17.0279 30.8749C17.0279 31.1715 16.9211 31.4235 16.7076 31.6311C16.4941 31.8387 16.239 31.9425 15.9425 31.9425H10.2487C9.9522 31.9425 9.69717 31.8387 9.48365 31.6311C9.27014 31.4235 9.16338 31.1715 9.16338 30.8749C9.16338 30.4242 9.19303 29.7807 9.25234 28.9444C9.31165 28.1081 9.34724 27.5892 9.3591 27.3875H1.13875C0.830338 27.3875 0.563444 27.2748 0.338066 27.0494C0.112689 26.8241 0 26.5572 0 26.2488C0 25.9403 0.112689 25.6734 0.338066 25.4481L7.49084 18.2775H3.41625C3.10784 18.2775 2.84094 18.1648 2.61557 17.9394C2.39019 17.7141 2.2775 17.4472 2.2775 17.1388C2.2775 16.8303 2.39019 16.5634 2.61557 16.3381L9.76834 9.16751H6.26312C5.95471 9.16751 5.68782 9.05482 5.46244 8.82944C5.23706 8.60406 5.12437 8.33717 5.12437 8.02876C5.12437 7.72034 5.23706 7.45345 5.46244 7.22807L12.2949 0.395573C12.5203 0.170195 12.7872 0.0575066 13.0956 0.0575066C13.404 0.0575066 13.6709 0.170195 13.8963 0.395573L20.7288 7.22807C20.9542 7.45345 21.0669 7.72034 21.0669 8.02876C21.0669 8.33717 20.9542 8.60406 20.7288 8.82944C20.5034 9.05482 20.2365 9.16751 19.9281 9.16751H16.4229L23.5757 16.3381C23.8011 16.5634 23.9137 16.8303 23.9137 17.1388C23.9137 17.4472 23.8011 17.7141 23.5757 17.9394C23.3503 18.1648 23.0834 18.2775 22.775 18.2775H18.7004L25.8532 25.4481Z" fill="white"/>
</g>
<defs>
<clipPath id="clip0_165_606">
<rect width="27.33" height="32" fill="white" transform="matrix(1 0 0 -1 0 32)"/>
</clipPath>
</defs>
</svg>
