<svg width="46" height="46" viewBox="0 0 46 46" fill="none" xmlns="http://www.w3.org/2000/svg">
<path d="M23 1.00891C10.8517 1.00891 1.00891 10.8517 1.00891 23C1.00891 35.1483 10.8517 44.9911 23 44.9911C35.1483 44.9911 44.9911 35.1483 44.9911 23C44.9911 10.8517 35.1483 1.00891 23 1.00891ZM31.2014 28.7638L29.428 30.9806C29.3116 31.1261 29.1677 31.2473 29.0045 31.3372C28.8412 31.4271 28.6619 31.4839 28.4767 31.5045C28.2916 31.5251 28.1041 31.509 27.9252 31.4572C27.7462 31.4053 27.5792 31.3187 27.4337 31.2023L21.4925 26.7935C21.0774 26.4611 20.7424 26.0397 20.5121 25.5603C20.2819 25.0809 20.1624 24.556 20.1624 24.0242V10.231C20.1624 9.8547 20.3119 9.49382 20.578 9.22775C20.8441 8.96168 21.2049 8.8122 21.5812 8.8122H24.4188C24.7951 8.8122 25.1559 8.96168 25.422 9.22775C25.6881 9.49382 25.8376 9.8547 25.8376 10.231V23L30.9806 26.7686C31.1262 26.8851 31.2474 27.0291 31.3373 27.1924C31.4272 27.3557 31.484 27.5352 31.5045 27.7205C31.525 27.9057 31.5088 28.0933 31.4568 28.2723C31.4048 28.4513 31.318 28.6183 31.2014 28.7638Z" fill="#10B981"/>
</svg>
