<svg width="65" height="65" viewBox="0 0 65 65" fill="none" xmlns="http://www.w3.org/2000/svg">
<path d="M32.5 24.0625C27.8506 24.0625 24.0625 27.8506 24.0625 32.5C24.0625 37.1494 27.8506 40.9375 32.5 40.9375C37.1494 40.9375 40.9375 37.1494 40.9375 32.5C40.9375 27.8506 37.1494 24.0625 32.5 24.0625ZM54.1562 31.1377L45.833 26.9805L48.7773 18.1562C49.1729 16.9609 48.0391 15.8271 46.8525 16.2314L38.0283 19.1758L33.8623 10.8438C33.2998 9.71875 31.7002 9.71875 31.1377 10.8438L26.9805 19.167L18.1475 16.2227C16.9521 15.8271 15.8184 16.9609 16.2227 18.1475L19.167 26.9717L10.8438 31.1377C9.71875 31.7002 9.71875 33.2998 10.8438 33.8623L19.167 38.0195L16.2227 46.8525C15.8271 48.0479 16.9609 49.1816 18.1475 48.7773L26.9717 45.833L31.1289 54.1562C31.6914 55.2812 33.291 55.2812 33.8535 54.1562L38.0107 45.833L46.835 48.7773C48.0303 49.1729 49.1641 48.0391 48.7598 46.8525L45.8154 38.0283L54.1387 33.8711C55.2812 33.2998 55.2812 31.7002 54.1562 31.1377ZM40.4541 40.4541C36.0684 44.8398 28.9316 44.8398 24.5459 40.4541C20.1602 36.0684 20.1602 28.9316 24.5459 24.5459C28.9316 20.1602 36.0684 20.1602 40.4541 24.5459C44.8398 28.9316 44.8398 36.0684 40.4541 40.4541Z" fill="#10B981"/>
</svg>
